PathFileType	4	(X/Y/Z)	C:\Git\research_data\Projects\torsion_deformities_healthy_kinematics\simulations\TD01\pre\static_01\marker_experimental.trc
DataRate	CameraRate	NumFrames	NumMarkers	Units	OrigDataRate	OrigDataStartFrame	OrigNumFrames
200	200	9	38	mm	200	51	200
Frame#	Time	C7			T10			CLAV			STRN			RBAK			LASI			RASI			SACR			RT1			RT2			RT3			RKNE			RS1			RS2			RS3			RANK			RHEE			RTOE			LT1			LT2			LT3			LKNE			LS1			LS2			LS3			LANK			LHEE			LTOE			LANM			RANM			RKNM			LKNM			RHJC			LHJC			LKJC			LAJC			RKJC			RAJC		
		X1	Y1	Z1	X2	Y2	Z2	X3	Y3	Z3	X4	Y4	Z4	X5	Y5	Z5	X6	Y6	Z6	X7	Y7	Z7	X8	Y8	Z8	X9	Y9	Z9	X10	Y10	Z10	X11	Y11	Z11	X12	Y12	Z12	X13	Y13	Z13	X14	Y14	Z14	X15	Y15	Z15	X16	Y16	Z16	X17	Y17	Z17	X18	Y18	Z18	X19	Y19	Z19	X20	Y20	Z20	X21	Y21	Z21	X22	Y22	Z22	X23	Y23	Z23	X24	Y24	Z24	X25	Y25	Z25	X26	Y26	Z26	X27	Y27	Z27	X28	Y28	Z28	X29	Y29	Z29	X30	Y30	Z30	X31	Y31	Z31	X32	Y32	Z32	X33	Y33	Z33	X34	Y34	Z34	X35	Y35	Z35	X36	Y36	Z36	X37	Y37	Z37	X38	Y38	Z38	

51	0.250000	612.419434	1224.411621	306.435486	609.599731	1032.995972	302.327637	625.627075	1226.351196	172.374939	625.627625	1105.233398	99.866875	705.322266	1157.201172	326.095490	516.757202	851.806335	129.030975	720.307251	859.831726	144.394714	607.026611	881.548340	299.722198	791.946411	662.257996	194.076263	803.919861	611.427795	235.906448	794.225281	596.399048	186.239395	815.724792	470.536896	224.578049	857.911560	359.055389	293.541931	859.075500	294.691833	311.058319	876.975708	302.115875	264.393982	895.087402	94.565475	285.612640	834.795959	74.303696	313.281219	920.455627	65.778236	144.422821	438.630035	664.418823	198.542557	430.773651	605.774841	229.383163	438.208801	601.189270	178.115433	411.348114	460.575439	223.894638	368.706085	341.582123	296.808624	361.270355	277.165466	309.525940	350.240845	288.731750	260.878998	336.543579	96.827156	308.697296	386.810120	77.020737	326.542480	285.245087	64.336494	164.689362	402.106537	91.805611	250.449890	817.325928	103.326859	239.380249	712.710388	431.362000	216.182068	523.910522	421.104065	218.948959	690.937814	795.192233	202.556216	542.047432	789.321915	191.318130	467.629318	440.839752	221.421799	369.325058	94.316383	279.573593	764.217590	450.949448	220.380058	856.206665	98.946167	262.496445	
52	0.255000	612.428711	1224.396362	306.477661	609.643250	1032.964111	302.359802	625.635132	1226.309082	172.413040	625.610413	1105.161377	99.904655	705.335510	1157.146240	326.146454	516.739502	851.819641	129.006882	720.268188	859.818787	144.366104	607.012634	881.519287	299.699158	791.935120	662.257935	194.035461	803.905334	611.430237	235.850708	794.205750	596.385864	186.198196	815.711670	470.535522	224.532928	857.974304	359.094147	293.550690	859.064819	294.694550	311.046448	876.976990	302.155151	264.384399	895.080994	94.569305	285.611572	834.793579	74.306503	313.270844	920.459595	65.775208	144.421555	438.585388	664.447876	198.505005	430.731079	605.797241	229.340179	438.162109	601.207092	178.077133	411.313507	460.581146	223.825546	368.685059	341.585663	296.757294	361.008331	277.154327	309.535278	350.223877	288.730011	260.856384	336.534760	96.822395	308.697815	386.813507	77.035210	326.541290	285.242218	64.332809	164.683914	402.107697	91.793518	250.451202	817.316650	103.327171	239.375153	712.687256	431.350708	216.142487	523.877502	421.100677	218.876755	690.896540	795.178451	202.514832	542.020171	789.327267	191.279928	467.595505	440.840912	221.351151	369.321228	94.307957	279.574509	764.199463	450.943115	220.337708	856.198822	98.948238	262.493362	
53	0.260000	612.451721	1224.375000	306.516632	609.619080	1032.952759	302.421326	625.639954	1226.270020	172.454544	625.605835	1105.103516	99.958351	705.333740	1157.106689	326.195221	516.715210	851.844055	129.004440	720.264587	859.801086	144.352844	606.992432	881.493530	299.692383	791.898010	662.258118	193.995544	803.863647	611.425964	235.825745	794.177002	596.382568	186.167801	815.695312	470.533447	224.507813	857.886169	359.022217	293.504364	859.053833	294.703949	311.037872	876.989197	302.159302	264.355164	895.067261	94.575806	285.603638	834.788574	74.309631	313.257721	920.464783	65.773872	144.428879	438.521973	664.469482	198.470154	430.692444	605.807251	229.303589	438.110687	601.242065	178.022232	411.295288	460.586365	223.755173	368.657745	341.592224	296.702576	361.238495	277.141449	309.455353	350.204224	288.710480	260.858154	336.534668	96.818443	308.696045	386.822754	77.043617	326.538696	285.248993	64.333481	164.684799	402.108154	91.784897	250.451584	817.316895	103.334244	239.356018	712.671143	431.348785	216.120758	523.853638	421.110840	218.788803	690.881266	795.150189	202.491532	541.991055	789.329862	191.264639	467.574463	440.848602	221.271988	369.321411	94.301670	279.573814	764.183228	450.941116	220.314285	856.192078	98.955025	262.479828	
54	0.265000	612.463562	1224.370239	306.554932	609.641663	1032.912476	302.466766	625.670532	1226.235229	172.497253	625.617920	1105.039429	100.037712	705.322388	1157.050659	326.269897	516.694458	851.862366	129.002579	720.233398	859.799438	144.327774	606.977539	881.473450	299.667664	791.859253	662.250183	193.947006	803.837158	611.416138	235.796860	794.148193	596.377991	186.130356	815.668396	470.517273	224.473282	858.127808	359.126068	293.595215	859.042297	294.708405	311.016266	876.969666	302.113708	264.333252	895.065857	94.580467	285.594421	834.782715	74.309814	313.270630	920.466553	65.774185	144.425659	438.495422	664.486084	198.431168	430.664001	605.818115	229.261856	438.030640	601.276978	177.956528	411.260590	460.595642	223.699799	368.630463	341.595581	296.632935	361.237061	277.156250	309.400055	350.179779	288.707184	260.826935	336.530334	96.818947	308.684418	386.811584	77.045853	326.532837	285.241791	64.339668	164.680084	402.100037	91.787140	250.444824	817.321289	103.326904	239.365189	712.646423	431.334534	216.076981	523.823914	421.103638	218.718475	690.853805	795.144871	202.455085	541.970308	789.339107	191.245099	467.542252	440.849640	221.209137	369.315186	94.303043	279.564621	764.157410	450.925903	220.275131	856.193573	98.953686	262.479805	
55	0.270000	612.475281	1224.367798	306.599152	609.638794	1032.882935	302.498047	625.663391	1226.179688	172.538544	625.608093	1105.007080	100.102959	705.343872	1157.009644	326.327515	516.660522	851.876282	128.986572	720.212769	859.790222	144.311966	606.964050	881.440491	299.644470	791.825195	662.247803	193.901352	803.838806	611.416504	235.743469	794.127625	596.361755	186.079742	815.651611	470.517212	224.438263	857.938843	359.095276	293.481689	859.023560	294.703735	310.979309	876.947144	302.120941	264.299255	895.054077	94.571266	285.591949	834.777832	74.313385	313.269379	920.468323	65.777672	144.419968	438.446869	664.513367	198.376938	430.631256	605.830322	229.206177	437.982086	601.289062	177.888718	411.238495	460.590942	223.630585	368.618469	341.603210	296.586975	360.938263	277.161407	309.416901	350.151917	288.675842	260.789856	336.534393	96.825455	308.674652	386.826965	77.053864	326.525055	285.241760	64.341644	164.688812	402.089264	91.783562	250.444672	817.328735	103.208870	239.487747	712.623535	431.322052	216.048447	523.782898	421.118652	218.648071	690.825663	795.121983	202.423085	541.933315	789.333174	191.213020	467.510696	440.854797	221.139328	369.311829	94.304508	279.559662	764.137573	450.919632	220.243355	856.191406	98.890068	262.539848	
56	0.275000	612.488342	1224.366699	306.632843	609.626648	1032.864502	302.571075	625.680969	1226.139526	172.572479	625.589478	1104.979370	100.093803	705.323364	1156.970581	326.404755	516.647095	851.890259	128.981140	720.200562	859.783936	144.295090	606.940979	881.418884	299.640045	791.806763	662.230957	193.839752	803.809875	611.412170	235.687668	794.083496	596.345154	186.030334	815.623901	470.515350	224.396332	857.961548	359.115265	293.454407	859.016907	294.710205	310.947205	876.912415	302.157867	264.258362	895.046265	94.581360	285.594940	834.779297	74.310371	313.274780	920.468262	65.778511	144.417999	438.393280	664.513000	198.328903	430.590698	605.825378	229.155334	437.924255	601.312500	177.836060	411.210632	460.589905	223.551895	368.593140	341.598602	296.530457	360.929138	277.146454	309.362183	350.148346	288.682800	260.761261	336.527985	96.826866	308.676605	386.808716	77.048393	326.509369	285.246155	64.344711	164.685257	402.093323	91.774345	250.434845	817.320740	103.219933	239.474472	712.608093	431.324219	216.013382	524.083557	421.038574	218.684448	690.811428	795.109198	202.398454	541.918156	789.335209	191.196758	467.647095	440.814240	221.118172	369.310654	94.300606	279.555725	764.115997	450.919785	220.204857	856.183502	98.900646	262.534706	
57	0.280000	612.502136	1224.374023	306.679962	609.616821	1032.837646	302.614746	625.683289	1226.108398	172.614349	625.567200	1104.967651	100.065689	705.315979	1156.941895	326.461548	516.608643	851.904297	128.993027	720.171875	859.774536	144.264923	606.917419	881.395630	299.625885	791.766785	662.231506	193.777039	803.796204	611.402771	235.616333	794.055054	596.324890	185.977066	815.603516	470.517212	224.365448	857.902527	359.073914	293.434662	858.991150	294.712555	310.937012	876.887512	302.131348	264.250488	895.044861	94.583038	285.583771	834.763855	74.313309	313.265869	920.471802	65.781609	144.413940	438.348022	664.514893	198.271835	430.543274	605.826172	229.096069	437.853516	601.333679	177.766861	411.180817	460.593140	223.481125	368.584320	341.600494	296.491364	360.903717	277.162384	309.353302	350.121338	288.667175	260.745178	336.527496	96.828705	308.667847	386.813263	77.055992	326.523560	285.239868	64.345406	164.682968	402.102264	91.771767	250.421997	817.315125	103.310074	239.338196	712.586792	431.309601	215.989029	524.066345	421.041321	218.608551	690.787673	795.092168	202.362895	541.887664	789.335339	191.191990	467.623581	440.817230	221.044838	369.314880	94.300236	279.544922	764.095154	450.913406	220.177238	856.179993	98.946556	262.460983	
58	0.285000	612.509766	1224.374756	306.715088	609.620056	1032.818237	302.647430	625.673950	1226.080444	172.634644	625.609375	1104.934814	100.174278	705.309265	1156.917725	326.530182	516.582092	851.920532	128.978302	720.149658	859.771545	144.248886	606.908325	881.377441	299.613342	791.745789	662.216003	193.728973	803.772400	611.395264	235.569458	794.013611	596.329163	185.922241	815.574402	470.499359	224.334381	858.042114	359.135773	293.471436	858.962891	294.708984	310.893738	876.881958	302.136047	264.226105	895.036987	94.587234	285.581238	834.755066	74.321976	313.271576	920.465149	65.780037	144.402542	438.337433	664.527893	198.236786	430.527893	605.839722	229.037537	437.837982	601.343140	177.713669	411.160217	460.584595	223.411438	368.571045	341.603912	296.447937	360.898437	277.150543	309.316681	350.093964	288.652191	260.626343	336.528015	96.836708	308.669830	386.824615	77.048828	326.516144	285.230957	64.343941	164.685257	402.104370	91.754066	250.419159	817.298828	103.309196	239.325821	712.561829	431.301300	215.950027	524.034729	421.040497	218.549210	690.760356	795.081282	202.336634	541.857424	789.338526	191.166708	467.597473	440.812546	220.980324	369.316193	94.295387	279.544495	764.068115	450.900330	220.142204	856.167908	98.948215	262.453529	
59	0.290000	612.513977	1224.380493	306.758759	609.604126	1032.790649	302.699432	625.708313	1226.039429	172.665329	625.748413	1104.800293	100.792313	705.320923	1156.902954	326.587341	516.555664	851.947876	128.988541	720.130981	859.765076	144.233505	606.878418	881.349487	299.602570	791.710754	662.205505	193.665573	803.740173	611.386169	235.511551	793.975220	596.315491	185.877090	815.557983	470.500092	224.290451	858.024536	359.157013	293.440582	858.948914	294.709930	310.881256	876.859192	302.157379	264.197510	895.026794	94.596252	285.568268	834.744812	74.325638	313.268494	920.465759	65.775650	144.406738	438.295288	664.548706	198.171295	430.500549	605.854126	228.971085	437.817413	601.349854	177.651291	411.131226	460.588562	223.351913	368.539612	341.609650	296.387634	360.883545	277.172028	309.263428	350.083008	288.657166	260.585114	336.527649	96.836800	308.670258	386.829926	77.051491	326.528259	285.233307	64.349091	164.679123	402.110443	91.751877	250.397202	817.296631	103.308342	239.324234	712.527649	431.296143	215.921509	524.019958	421.048920	218.483582	690.739411	795.064257	202.307628	541.831131	789.346247	191.156466	467.575592	440.818741	220.917747	369.319046	94.294338	279.533730	764.042816	450.898117	220.105980	856.161713	98.952297	262.446251	
